{
    "asset" : {
        "generator" : "Khronos glTF Blender I/O v1.6.16",
        "version" : "2.0"
    },
    "scene" : 0,
    "scenes" : [
        {
            "name" : "Scene",
            "nodes" : [
                0,
                1,
                2,
                3
            ]
        }
    ],
    "nodes" : [
        {
            "mesh" : 0,
            "name" : "saturn",
            "scale" : [
                5.469043254852295,
                5.469043254852295,
                5.469043254852295
            ],
            "translation" : [
                -60.76150131225586,
                -34.2060432434082,
                0.005622684955596924
            ]
        },
        {
            "mesh" : 1,
            "name" : "moon",
            "rotation" : [
                0.6911351680755615,
                -0.29099419713020325,
                0.14138486981391907,
                0.6462699770927429
            ],
            "scale" : [
                6.827306270599365,
                6.827306270599365,
                6.827306270599365
            ],
            "translation" : [
                1.4396331310272217,
                -33.90496826171875,
                -60.23903274536133
            ]
        },
        {
            "mesh" : 2,
            "name" : "satelite",
            "rotation" : [
                -0.5573564171791077,
                -0.7310267686843872,
                0.2708861827850342,
                -0.2856122851371765
            ],
            "scale" : [
                -1.4240145683288574,
                1.424014687538147,
                1.4240145683288574
            ],
            "translation" : [
                60.51958084106445,
                -33.559207916259766,
                0.6398437023162842
            ]
        },
        {
            "mesh" : 3,
            "name" : "star",
            "rotation" : [
                0,
                0.6906002759933472,
                0,
                0.723236620426178
            ],
            "scale" : [
                5.469043254852295,
                5.469043254852295,
                5.469043254852295
            ],
            "translation" : [
                -0.509735107421875,
                -33.32500457763672,
                60.895957946777344
            ]
        }
    ],
    "materials" : [
        {
            "doubleSided" : true,
            "name" : "SATURN",
            "pbrMetallicRoughness" : {}
        },
        {
            "doubleSided" : true,
            "name" : "SATURN RING",
            "pbrMetallicRoughness" : {}
        },
        {
            "doubleSided" : true,
            "name" : "PINKSTAR",
            "pbrMetallicRoughness" : {
                "baseColorFactor" : [
                    0.001864246092736721,
                    0.8000000715255737,
                    0.777145266532898,
                    1
                ],
                "metallicFactor" : 0,
                "roughnessFactor" : 0.5
            }
        },
        {
            "doubleSided" : true,
            "name" : "CHEESE",
            "pbrMetallicRoughness" : {}
        },
        {
            "doubleSided" : true,
            "name" : "GOLD",
            "pbrMetallicRoughness" : {
                "baseColorFactor" : [
                    0.8000000715255737,
                    0.2774074971675873,
                    0.056242357939481735,
                    1
                ],
                "metallicFactor" : 0.8055555820465088,
                "roughnessFactor" : 0.5
            }
        }
    ],
    "meshes" : [
        {
            "name" : "Sphere",
            "primitives" : [
                {
                    "attributes" : {
                        "POSITION" : 0,
                        "NORMAL" : 1,
                        "TEXCOORD_0" : 2
                    },
                    "indices" : 3,
                    "material" : 0
                },
                {
                    "attributes" : {
                        "POSITION" : 4,
                        "NORMAL" : 5,
                        "TEXCOORD_0" : 6
                    },
                    "indices" : 7,
                    "material" : 1
                },
                {
                    "attributes" : {
                        "POSITION" : 8,
                        "NORMAL" : 9,
                        "TEXCOORD_0" : 10
                    },
                    "indices" : 11,
                    "material" : 2
                }
            ]
        },
        {
            "name" : "Circle",
            "primitives" : [
                {
                    "attributes" : {
                        "POSITION" : 12,
                        "NORMAL" : 13,
                        "TEXCOORD_0" : 14
                    },
                    "indices" : 15,
                    "material" : 3
                }
            ]
        },
        {
            "name" : "Cylinder.002",
            "primitives" : [
                {
                    "attributes" : {
                        "POSITION" : 16,
                        "NORMAL" : 17,
                        "TEXCOORD_0" : 18
                    },
                    "indices" : 19,
                    "material" : 4
                }
            ]
        },
        {
            "name" : "Cylinder.003",
            "primitives" : [
                {
                    "attributes" : {
                        "POSITION" : 20,
                        "NORMAL" : 21,
                        "TEXCOORD_0" : 22
                    },
                    "indices" : 23,
                    "material" : 2
                }
            ]
        }
    ],
    "accessors" : [
        {
            "bufferView" : 0,
            "componentType" : 5126,
            "count" : 712,
            "max" : [
                0.9444910287857056,
                0.9906461238861084,
                0.9444910287857056
            ],
            "min" : [
                -0.9444907903671265,
                -0.9906461238861084,
                -0.944490909576416
            ],
            "type" : "VEC3"
        },
        {
            "bufferView" : 1,
            "componentType" : 5126,
            "count" : 712,
            "type" : "VEC3"
        },
        {
            "bufferView" : 2,
            "componentType" : 5126,
            "count" : 712,
            "type" : "VEC2"
        },
        {
            "bufferView" : 3,
            "componentType" : 5123,
            "count" : 3312,
            "type" : "SCALAR"
        },
        {
            "bufferView" : 4,
            "componentType" : 5126,
            "count" : 399,
            "max" : [
                1.87032949924469,
                0.04415731877088547,
                1.8782473802566528
            ],
            "min" : [
                -1.865966796875,
                -0.028660573065280914,
                -1.8580491542816162
            ],
            "type" : "VEC3"
        },
        {
            "bufferView" : 5,
            "componentType" : 5126,
            "count" : 399,
            "type" : "VEC3"
        },
        {
            "bufferView" : 6,
            "componentType" : 5126,
            "count" : 399,
            "type" : "VEC2"
        },
        {
            "bufferView" : 7,
            "componentType" : 5123,
            "count" : 1440,
            "type" : "SCALAR"
        },
        {
            "bufferView" : 8,
            "componentType" : 5126,
            "count" : 85,
            "max" : [
                1.7933765649795532,
                -0.028660569339990616,
                1.8012945652008057
            ],
            "min" : [
                -1.7890138626098633,
                -0.03296829015016556,
                -1.781096339225769
            ],
            "type" : "VEC3"
        },
        {
            "bufferView" : 9,
            "componentType" : 5126,
            "count" : 85,
            "type" : "VEC3"
        },
        {
            "bufferView" : 10,
            "componentType" : 5126,
            "count" : 85,
            "type" : "VEC2"
        },
        {
            "bufferView" : 11,
            "componentType" : 5123,
            "count" : 288,
            "type" : "SCALAR"
        },
        {
            "bufferView" : 12,
            "componentType" : 5126,
            "count" : 4864,
            "max" : [
                0.8295264840126038,
                0.4182824194431305,
                0.9935951828956604
            ],
            "min" : [
                -0.990619421005249,
                0,
                -0.9935951828956604
            ],
            "type" : "VEC3"
        },
        {
            "bufferView" : 13,
            "componentType" : 5126,
            "count" : 4864,
            "type" : "VEC3"
        },
        {
            "bufferView" : 14,
            "componentType" : 5126,
            "count" : 4864,
            "type" : "VEC2"
        },
        {
            "bufferView" : 15,
            "componentType" : 5123,
            "count" : 7296,
            "type" : "SCALAR"
        },
        {
            "bufferView" : 16,
            "componentType" : 5126,
            "count" : 284,
            "max" : [
                3.8639414310455322,
                9.026508331298828,
                3.8515024185180664
            ],
            "min" : [
                -3.974283456802368,
                -3.0808610916137695,
                -3.1403965950012207
            ],
            "type" : "VEC3"
        },
        {
            "bufferView" : 17,
            "componentType" : 5126,
            "count" : 284,
            "type" : "VEC3"
        },
        {
            "bufferView" : 18,
            "componentType" : 5126,
            "count" : 284,
            "type" : "VEC2"
        },
        {
            "bufferView" : 19,
            "componentType" : 5123,
            "count" : 1368,
            "type" : "SCALAR"
        },
        {
            "bufferView" : 20,
            "componentType" : 5126,
            "count" : 1072,
            "max" : [
                0.3800828456878662,
                1.4361920356750488,
                1.3384828567504883
            ],
            "min" : [
                -0.37940022349357605,
                -1.5255544185638428,
                -1.5599490404129028
            ],
            "type" : "VEC3"
        },
        {
            "bufferView" : 21,
            "componentType" : 5126,
            "count" : 1072,
            "type" : "VEC3"
        },
        {
            "bufferView" : 22,
            "componentType" : 5126,
            "count" : 1072,
            "type" : "VEC2"
        },
        {
            "bufferView" : 23,
            "componentType" : 5123,
            "count" : 4080,
            "type" : "SCALAR"
        }
    ],
    "bufferViews" : [
        {
            "buffer" : 0,
            "byteLength" : 8544,
            "byteOffset" : 0
        },
        {
            "buffer" : 0,
            "byteLength" : 8544,
            "byteOffset" : 8544
        },
        {
            "buffer" : 0,
            "byteLength" : 5696,
            "byteOffset" : 17088
        },
        {
            "buffer" : 0,
            "byteLength" : 6624,
            "byteOffset" : 22784
        },
        {
            "buffer" : 0,
            "byteLength" : 4788,
            "byteOffset" : 29408
        },
        {
            "buffer" : 0,
            "byteLength" : 4788,
            "byteOffset" : 34196
        },
        {
            "buffer" : 0,
            "byteLength" : 3192,
            "byteOffset" : 38984
        },
        {
            "buffer" : 0,
            "byteLength" : 2880,
            "byteOffset" : 42176
        },
        {
            "buffer" : 0,
            "byteLength" : 1020,
            "byteOffset" : 45056
        },
        {
            "buffer" : 0,
            "byteLength" : 1020,
            "byteOffset" : 46076
        },
        {
            "buffer" : 0,
            "byteLength" : 680,
            "byteOffset" : 47096
        },
        {
            "buffer" : 0,
            "byteLength" : 576,
            "byteOffset" : 47776
        },
        {
            "buffer" : 0,
            "byteLength" : 58368,
            "byteOffset" : 48352
        },
        {
            "buffer" : 0,
            "byteLength" : 58368,
            "byteOffset" : 106720
        },
        {
            "buffer" : 0,
            "byteLength" : 38912,
            "byteOffset" : 165088
        },
        {
            "buffer" : 0,
            "byteLength" : 14592,
            "byteOffset" : 204000
        },
        {
            "buffer" : 0,
            "byteLength" : 3408,
            "byteOffset" : 218592
        },
        {
            "buffer" : 0,
            "byteLength" : 3408,
            "byteOffset" : 222000
        },
        {
            "buffer" : 0,
            "byteLength" : 2272,
            "byteOffset" : 225408
        },
        {
            "buffer" : 0,
            "byteLength" : 2736,
            "byteOffset" : 227680
        },
        {
            "buffer" : 0,
            "byteLength" : 12864,
            "byteOffset" : 230416
        },
        {
            "buffer" : 0,
            "byteLength" : 12864,
            "byteOffset" : 243280
        },
        {
            "buffer" : 0,
            "byteLength" : 8576,
            "byteOffset" : 256144
        },
        {
            "buffer" : 0,
            "byteLength" : 8160,
            "byteOffset" : 264720
        }
    ],
    "buffers" : [
        {
            "byteLength" : 272880,
            "uri" : "data:application/octet-stream;base64,"
        }
    ]
}
